<svg xmlns="http://www.w3.org/2000/svg" xmlns:xlink="http://www.w3.org/1999/xlink" width="140.78" height="16.31" viewBox="0 0 140.78 16.31">
  <metadata><?xpacket begin="﻿" id="W5M0MpCehiHzreSzNTczkc9d"?>
<x:xmpmeta xmlns:x="adobe:ns:meta/" x:xmptk="Adobe XMP Core 5.6-c138 79.159824, 2016/09/14-01:09:01        ">
   <rdf:RDF xmlns:rdf="http://www.w3.org/1999/02/22-rdf-syntax-ns#">
      <rdf:Description rdf:about=""/>
   </rdf:RDF>
</x:xmpmeta>
                                                                                                    
                                                                                                    
                                                                                                    
                                                                                                    
                                                                                                    
                                                                                                    
                                                                                                    
                                                                                                    
                                                                                                    
                                                                                                    
                                                                                                    
                                                                                                    
                                                                                                    
                                                                                                    
                                                                                                    
                                                                                                    
                                                                                                    
                                                                                                    
                                                                                                    
                                                                                                    
                           
<?xpacket end="w"?></metadata>
<defs>
    <style>
      .cls-1 {
        fill: #fff;
        fill-rule: evenodd;
        filter: url(#filter);
      }
    </style>
    <filter id="filter" x="1543.22" y="2246.69" width="140.78" height="16.31" filterUnits="userSpaceOnUse">
      <feOffset result="offset" dx="1" dy="1.732" in="SourceAlpha"/>
      <feGaussianBlur result="blur" stdDeviation="1.414"/>
      <feFlood result="flood" flood-opacity="0.4"/>
      <feComposite result="composite" operator="in" in2="blur"/>
      <feBlend result="blend" in="SourceGraphic"/>
    </filter>
  </defs>
  <path id="Designed_by_Pingbull_AS" data-name="Designed by Pingbull AS" class="cls-1" d="M1548.65,2248.51a4.224,4.224,0,0,0-3.12-1.08h-2.32V2256h2.05a4.627,4.627,0,0,0,3.33-1.1,4.4,4.4,0,0,0,1.13-3.27A4.23,4.23,0,0,0,1548.65,2248.51Zm-3.42,6.96h-1.42v-7.51h1.58a3.289,3.289,0,0,1,3.68,3.7q0,3.81-3.84,3.81h0Zm9.89,0.56a4.248,4.248,0,0,0,1-.32v-0.52a6.758,6.758,0,0,1-1.05.32,5.469,5.469,0,0,1-.96.08,2.166,2.166,0,0,1-1.72-.69,3.033,3.033,0,0,1-.61-2.01h4.59v-0.46a3.292,3.292,0,0,0-.65-2.14,2.207,2.207,0,0,0-1.78-.78,2.468,2.468,0,0,0-2.02.91,3.772,3.772,0,0,0-.75,2.45,3.423,3.423,0,0,0,.78,2.39,2.765,2.765,0,0,0,2.16.86A5.269,5.269,0,0,0,1555.12,2256.03Zm0.15-5.38a2.759,2.759,0,0,1,.48,1.73h-3.94a2.91,2.91,0,0,1,.65-1.75,1.952,1.952,0,0,1,1.48-.61A1.574,1.574,0,0,1,1555.27,2250.65Zm6.59,2.95a1.9,1.9,0,0,0-.59-0.57,7.513,7.513,0,0,0-1.25-.56,4.8,4.8,0,0,1-1.39-.67,0.981,0.981,0,0,1-.35-0.79,0.792,0.792,0,0,1,.45-0.72,2.576,2.576,0,0,1,1.24-.25,4.493,4.493,0,0,1,1.74.38l0.22-.53a5.183,5.183,0,0,0-1.96-.38,2.979,2.979,0,0,0-1.68.41,1.316,1.316,0,0,0-.6,1.13,1.421,1.421,0,0,0,.2.77,1.735,1.735,0,0,0,.58.56,7.214,7.214,0,0,0,1.34.6,4.167,4.167,0,0,1,1.28.64,1.022,1.022,0,0,1,.39.81,0.926,0.926,0,0,1-.49.83,2.633,2.633,0,0,1-1.43.32,4.49,4.49,0,0,1-2.03-.48v0.62a4.307,4.307,0,0,0,2.03.4,3.239,3.239,0,0,0,1.85-.46,1.535,1.535,0,0,0,.65-1.32A1.388,1.388,0,0,0,1561.86,2253.6Zm2.3-3.97h-0.58V2256h0.58v-6.37Zm-0.3-1.2a0.339,0.339,0,0,0,.29-0.15,0.726,0.726,0,0,0,.1-0.42,0.671,0.671,0,0,0-.1-0.41,0.339,0.339,0,0,0-.29-0.15c-0.24,0-.37.19-0.37,0.56s0.13,0.57.37,0.57h0Zm5.27,1.2a3.062,3.062,0,0,0-.97-0.12,2.306,2.306,0,0,0-1.64.57,2.236,2.236,0,0,0-.29,2.66,1.775,1.775,0,0,0,.87.72,1.352,1.352,0,0,0-.82,1.12,0.853,0.853,0,0,0,.17.52,1.153,1.153,0,0,0,.46.35,2.063,2.063,0,0,0-1.1.59,1.536,1.536,0,0,0-.41,1.09,1.491,1.491,0,0,0,.66,1.29,3.2,3.2,0,0,0,1.86.46,4.116,4.116,0,0,0,2.33-.55,1.742,1.742,0,0,0,.82-1.55,1.477,1.477,0,0,0-.55-1.24,2.6,2.6,0,0,0-1.59-.42h-1.11a1.609,1.609,0,0,1-.78-0.14,0.481,0.481,0,0,1-.23-0.44,0.892,0.892,0,0,1,.18-0.53,1.541,1.541,0,0,1,.53-0.42,4.112,4.112,0,0,0,.61.03,2.322,2.322,0,0,0,1.64-.57,1.938,1.938,0,0,0,.61-1.49,2.2,2.2,0,0,0-.53-1.44l1.32-.08v-0.41h-2.04Zm-1.36,6.07h1.04a2.386,2.386,0,0,1,1.27.26,0.906,0.906,0,0,1,.4.83c0,1.07-.84,1.6-2.51,1.6-1.3,0-1.95-.44-1.95-1.31,0-.92.58-1.38,1.75-1.38h0Zm-0.83-5.3a1.624,1.624,0,0,1,1.2-.44,1.73,1.73,0,0,1,1.22.41,1.6,1.6,0,0,1,.44,1.22,1.564,1.564,0,0,1-.43,1.18,1.693,1.693,0,0,1-1.22.4,1.729,1.729,0,0,1-1.2-.41,1.455,1.455,0,0,1-.45-1.14A1.657,1.657,0,0,1,1566.94,2250.4Zm10.6,5.6v-4.17c0-1.55-.72-2.32-2.16-2.32a2.4,2.4,0,0,0-2.21.99h-0.04l-0.11-.87h-0.49V2256h0.58v-3.52a2.7,2.7,0,0,1,.53-1.87,2.177,2.177,0,0,1,1.67-.57,1.644,1.644,0,0,1,1.26.43,2.071,2.071,0,0,1,.4,1.4V2256h0.57Zm5.61,0.03a4.184,4.184,0,0,0,.99-0.32v-0.52a6.384,6.384,0,0,1-1.04.32,5.469,5.469,0,0,1-.96.08,2.152,2.152,0,0,1-1.72-.69,3.033,3.033,0,0,1-.61-2.01h4.59v-0.46a3.292,3.292,0,0,0-.65-2.14,2.207,2.207,0,0,0-1.78-.78,2.468,2.468,0,0,0-2.02.91,3.772,3.772,0,0,0-.75,2.45,3.467,3.467,0,0,0,.77,2.39,2.787,2.787,0,0,0,2.17.86A5.269,5.269,0,0,0,1583.15,2256.03Zm0.15-5.38a2.759,2.759,0,0,1,.48,1.73h-3.94a2.91,2.91,0,0,1,.65-1.75,1.936,1.936,0,0,1,1.48-.61A1.574,1.574,0,0,1,1583.3,2250.65Zm3.18-.27a3.993,3.993,0,0,0-.69,2.53,3.587,3.587,0,0,0,.7,2.39,2.5,2.5,0,0,0,2.01.82,2.38,2.38,0,0,0,2.09-1.09h0.05l0.14,0.97h0.38v-9.12h-0.57v2.29c0,0.48.01,0.96,0.03,1.45h-0.03a2.43,2.43,0,0,0-.9-0.86,2.653,2.653,0,0,0-1.2-.25A2.413,2.413,0,0,0,1586.48,2250.38Zm3.61,0.3a3.548,3.548,0,0,1,.5,2.13v0.1a3.328,3.328,0,0,1-.5,2.06,1.925,1.925,0,0,1-1.59.63c-1.4,0-2.1-.9-2.1-2.71a3.607,3.607,0,0,1,.52-2.12,1.808,1.808,0,0,1,1.57-.73A1.883,1.883,0,0,1,1590.09,2250.68Zm7.79-.9a2.275,2.275,0,0,0-.88.84h-0.04l0.02-.5c0.01-.29.02-0.6,0.02-0.95v-2.29h-0.58V2256h0.36l0.17-.96H1597a2.209,2.209,0,0,0,.86.8,2.717,2.717,0,0,0,1.23.28,2.481,2.481,0,0,0,2-.86,3.784,3.784,0,0,0,.71-2.45,3.857,3.857,0,0,0-.68-2.46,2.425,2.425,0,0,0-2.01-.84A2.6,2.6,0,0,0,1597.88,2249.78Zm3.3,3.01a3.512,3.512,0,0,1-.52,2.08,1.82,1.82,0,0,1-1.57.73,1.891,1.891,0,0,1-1.58-.63,3.256,3.256,0,0,1-.51-2.06v-0.1a3.556,3.556,0,0,1,.49-2.13,1.879,1.879,0,0,1,1.61-.64c1.39,0,2.08.92,2.08,2.75h0Zm3.74,3.21c-0.05.13-.15,0.41-0.31,0.83a6.365,6.365,0,0,1-.43.94,1.275,1.275,0,0,1-.42.44,0.985,0.985,0,0,1-.52.14,2.942,2.942,0,0,1-.74-0.09v0.5a2.766,2.766,0,0,0,.75.12,1.611,1.611,0,0,0,.76-0.16,1.523,1.523,0,0,0,.55-0.47,6.744,6.744,0,0,0,.58-1.22l2.85-7.4h-0.6l-1.35,3.54c-0.37,1-.64,1.75-0.8,2.26h-0.03q-0.165-.585-0.78-2.22l-1.35-3.58h-0.6Zm12.51-7.86a3.615,3.615,0,0,0-2.43-.71h-2.97V2256h2.32v-2.84H1615a3.4,3.4,0,0,0,2.4-.78,2.864,2.864,0,0,0,.85-2.22A2.531,2.531,0,0,0,1617.43,2248.14Zm-3.08,1.16h0.59a0.811,0.811,0,0,1,.96.87,1.1,1.1,0,0,1-.3.81,1.181,1.181,0,0,1-.83.29h-0.42v-1.97Zm7.37,0.06h-2.29V2256h2.29v-6.64Zm-1.13-.64a1,1,0,0,0,1.22-1.01,0.965,0.965,0,0,0-.29-0.76,1.414,1.414,0,0,0-.93-0.26,1.38,1.38,0,0,0-.93.25,0.988,0.988,0,0,0-.29.77,1,1,0,0,0,1.22,1.01h0Zm9.25,7.28v-4.32a2.505,2.505,0,0,0-.62-1.8,2.27,2.27,0,0,0-1.71-.64,2.778,2.778,0,0,0-1.19.24,1.735,1.735,0,0,0-.81.7h-0.14l-0.29-.82h-1.72V2256h2.29v-2.91a3.491,3.491,0,0,1,.25-1.58,0.908,0.908,0,0,1,.84-0.47,0.652,0.652,0,0,1,.61.34,2.038,2.038,0,0,1,.19,1V2256h2.3Zm5.48-6.64c-0.14-.02-0.36-0.05-0.66-0.07s-0.51-.05-0.63-0.05a3.292,3.292,0,0,0-2.11.6,2.051,2.051,0,0,0-.74,1.68,2.237,2.237,0,0,0,.3,1.19,1.8,1.8,0,0,0,.81.71,2.6,2.6,0,0,0-.71.57,0.944,0.944,0,0,0-.17.55,0.925,0.925,0,0,0,.23.56,1.413,1.413,0,0,0,.53.42,1.568,1.568,0,0,0-1.48,1.53,1.509,1.509,0,0,0,.77,1.36,4.09,4.09,0,0,0,2.17.47,5.311,5.311,0,0,0,2.91-.67,2.131,2.131,0,0,0,1.03-1.89c0-1.25-.74-1.88-2.23-1.88h-1.1a2.341,2.341,0,0,1-.72-0.09,0.314,0.314,0,0,1-.28-0.26,0.669,0.669,0,0,1,.08-0.29,3.01,3.01,0,0,0,.59.05,3.64,3.64,0,0,0,2.25-.59,2.01,2.01,0,0,0,.75-1.67,1.566,1.566,0,0,0-.19-0.79l0.91-.33v-1.11h-2.31Zm-2.44,7.04a1.138,1.138,0,0,1,.63-0.17h0.89a2.482,2.482,0,0,1,.87.11,0.377,0.377,0,0,1,.31.37,0.65,0.65,0,0,1-.5.54,3.763,3.763,0,0,1-1.33.2,1.614,1.614,0,0,1-.82-0.17A0.491,0.491,0,0,1,1632.88,2256.4Zm1.18-5.88c0.45,0,.68.34,0.68,1.03a1.3,1.3,0,0,1-.18.75,0.578,0.578,0,0,1-.5.25c-0.48,0-.71-0.34-0.71-1.01s0.23-1.02.71-1.02h0Zm7.72-1.05a2.11,2.11,0,0,0-.77.75h-0.08c0.05-.6.08-1.03,0.08-1.27v-2.07h-2.29V2256h1.78l0.37-.65h0.14a2.915,2.915,0,0,0,.52.47,1.894,1.894,0,0,0,.52.22,2.569,2.569,0,0,0,.65.08,2.077,2.077,0,0,0,1.79-.92,4.423,4.423,0,0,0,.64-2.53,4.312,4.312,0,0,0-.64-2.52,2.008,2.008,0,0,0-1.72-.91A2.126,2.126,0,0,0,1641.78,2249.47Zm1.02,3.17a2.767,2.767,0,0,1-.22,1.22,0.685,0.685,0,0,1-.62.41,0.806,0.806,0,0,1-.73-0.35,2.3,2.3,0,0,1-.22-1.17v-0.32a1.909,1.909,0,0,1,.22-1.05,0.769,0.769,0,0,1,.7-0.34c0.58,0,.87.54,0.87,1.6h0Zm10.12,3.36v-6.64h-2.29v2.91a3.471,3.471,0,0,1-.26,1.57,0.868,0.868,0,0,1-.84.47,0.645,0.645,0,0,1-.61-0.34,2.111,2.111,0,0,1-.18-0.98v-3.63h-2.29v4.33a2.46,2.46,0,0,0,.61,1.79,2.21,2.21,0,0,0,1.7.64,2.7,2.7,0,0,0,1.21-.25,1.819,1.819,0,0,0,.8-0.7h0.13l0.29,0.83h1.73Zm3.91-9.12h-2.29V2256h2.29v-9.12Zm3.9,0h-2.29V2256h2.29v-9.12Zm12.63,9.12-2.83-8.6h-3.09l-2.79,8.6h2.54l0.43-1.61h2.79l0.42,1.61h2.53Zm-5.26-3.5c0.36-1.35.59-2.25,0.69-2.71s0.17-.78.21-0.98c0.04,0.22.12,0.57,0.24,1.07s0.23,0.9.32,1.21l0.37,1.41h-1.83Zm11.67-.54a3.92,3.92,0,0,0-1.54-1.07,9.388,9.388,0,0,1-1.42-.73,0.567,0.567,0,0,1-.26-0.45,0.485,0.485,0,0,1,.21-0.39,1.018,1.018,0,0,1,.65-0.16,5.284,5.284,0,0,1,2.08.55l0.71-1.78a6.7,6.7,0,0,0-2.72-.62,3.782,3.782,0,0,0-2.36.66,2.193,2.193,0,0,0-.87,1.85,2.585,2.585,0,0,0,.21,1.09,2.129,2.129,0,0,0,.62.82,5.4,5.4,0,0,0,1.25.74c0.62,0.28,1,.46,1.14.55a0.95,0.95,0,0,1,.31.27,0.48,0.48,0,0,1,.1.31,0.548,0.548,0,0,1-.24.46,1.255,1.255,0,0,1-.75.18,5.525,5.525,0,0,1-1.32-.19,7.608,7.608,0,0,1-1.37-.53v2.06a5.224,5.224,0,0,0,1.2.42,7.311,7.311,0,0,0,1.44.12,4.33,4.33,0,0,0,1.79-.35,2.568,2.568,0,0,0,1.16-.96,2.509,2.509,0,0,0,.41-1.41A2.367,2.367,0,0,0,1679.77,2251.96Z" transform="translate(-1543.22 -2246.69)"/>
</svg>
